<svg xmlns="http://www.w3.org/2000/svg" width="64" height="64" fill="none" xmlns:v="https://vecta.io/nano"><g fill="#ebffb7"><use href="#B"/><use href="#B" x="-4.496"/><use href="#B" x="-4.496"/><use href="#B" x="-8.995" y="-4.498"/><use href="#C"/><use href="#C" y="-4.5"/><use href="#D"/><use href="#D" y="-4.498"/><use href="#B" x="-8.995" y="-49.48"/><use href="#D" y="-26.99"/><use href="#C" y="-40.482"/><use href="#C" y="-44.982"/><use href="#D" y="-17.996"/><use href="#D" y="-22.494"/><use href="#D" y="-13.496"/><use href="#D" y="-8.998"/><use href="#B" x="4.499"/><use href="#B" x="8.998"/><use href="#B" y="-53.979"/><use href="#B" x="4.499" y="-53.979"/><use href="#B" x="8.998" y="-53.979"/><use href="#B" x="13.496" y="-53.979"/><use href="#B" x="17.995" y="-53.979"/><use href="#B" x="35.986" y="-13.492"/><use href="#B" x="35.986" y="-8.998"/><use href="#B" x="31.49" y="-4.498"/><use href="#B" x="26.991"/><use href="#B" x="22.492"/><use href="#B" x="17.995"/><use href="#B" x="13.496"/><use href="#B" x="35.986" y="-17.99"/><use href="#B" x="35.986" y="-22.49"/><use href="#B" x="35.986" y="-26.988"/><use href="#B" x="35.986" y="-31.488"/><use href="#B" x="35.986" y="-35.986"/><use href="#B" x="35.986" y="-40.482"/><use href="#B" x="35.986" y="-44.98"/><use href="#B" x="31.49" y="-49.48"/><use href="#B" x="-4.496" y="-53.979"/><use href="#B" x="26.991" y="-53.979"/><use href="#B" x="22.492" y="-53.979"/></g><g fill="#eff8cb"><use href="#B" x="31.49" y="-13.492"/><use href="#B" x="26.991" y="-8.998"/><use href="#B" x="22.492" y="-8.998"/><use href="#B" x="17.995" y="-8.998"/><use href="#B" x="13.496" y="-8.998"/><use href="#B" x="8.998" y="-8.998"/><use href="#B" x="4.499" y="-8.998"/><use href="#B" y="-8.998"/><use href="#B" x="-4.496" y="-13.492"/><use href="#B" x="-8.995" y="-17.99"/><use href="#B" x="-8.995" y="-22.49"/><use href="#B" x="-8.995" y="-26.988"/><use href="#B" x="-8.995" y="-31.488"/><use href="#E"/><use href="#B" x="-8.995" y="-40.482"/><use href="#B" x="-8.995" y="-8.998"/></g><g fill="#71814e"><use href="#B" x="13.496" y="-35.986"/><use href="#B" x="13.496" y="-31.488"/><use href="#B" x="13.496" y="-26.988"/><use href="#B" x="13.496" y="-22.49"/><use href="#B" x="13.496" y="-17.99"/><use href="#B" x="13.496" y="-40.482"/><use href="#B" x="8.998" y="-40.482"/><use href="#B" x="8.998" y="-35.986"/><use href="#B" x="8.998" y="-31.488"/><use href="#B" x="4.499" y="-31.488"/><use href="#B" x="4.499" y="-26.988"/><use href="#B" x="9.898" y="-26.988"/><use href="#B" x="7.798" y="-26.988"/><use href="#B" x="13.496" y="-13.492"/><use href="#B" x="8.998" y="-13.492"/><use href="#B" x="4.499" y="-13.492"/><use href="#B" x="17.995" y="-13.492"/><use href="#B" x="22.492" y="-13.492"/><use href="#B" x="26.991" y="-13.492"/><use href="#B" y="-13.492"/><use href="#B" x="13.496" y="-49.48"/><use href="#B" x="8.998" y="-49.48"/><use href="#B" x="4.499" y="-49.48"/><use href="#B" x="17.995" y="-49.48"/><use href="#B" x="22.492" y="-49.48"/><use href="#B" x="26.991" y="-49.48"/><use href="#B" y="-49.48"/><use href="#B" x="-4.496" y="-49.48"/><use href="#F"/><use href="#F" y="-4.498"/><use href="#F" y="-8.994"/><use href="#F" y="4.5"/><use href="#F" y="8.998"/><use href="#F" y="13.498"/><use href="#G"/><use href="#F" x="-35.986"/><use href="#F" x="-35.986" y="-4.498"/><use href="#F" x="-35.986" y="-8.994"/><use href="#F" x="-35.986" y="4.5"/><use href="#F" x="-35.986" y="8.998"/><use href="#F" x="-35.986" y="13.498"/><use href="#F" x="-40.482" y="17.996"/><use href="#H"/><use href="#F" x="-35.986" y="22.49"/><use href="#F" x="-35.986" y="26.99"/><use href="#F" x="-31.487" y="26.99"/><use href="#F" x="-22.49" y="26.99"/><path d="M41.158 49.711v4.498H36.66v-4.498z"/><use href="#F" x="-13.494" y="26.99"/><use href="#F" x="-8.995" y="26.99"/><use href="#F" x="-4.496" y="26.99"/><use href="#F" y="22.49"/><use href="#F" x="-26.988" y="26.99"/><use href="#H" y="-4.498"/><use href="#H" y="-8.998"/><use href="#H" y="-13.496"/><use href="#H" y="-17.996"/><use href="#H" y="-22.494"/><use href="#H" y="-26.99"/><use href="#G" x="-40.482"/><use href="#F" x="-31.487"/><use href="#F" x="-31.487" y="-4.498"/><use href="#F" x="-31.487" y="-8.994"/><use href="#F" x="-31.487" y="4.5"/><use href="#F" x="-31.487" y="8.998"/><use href="#F" x="-31.487" y="13.498"/><use href="#G" x="-31.487"/><use href="#G" x="-35.986"/><use href="#F" x="-26.988"/><use href="#F" x="-26.988" y="-4.498"/><use href="#F" x="-26.988" y="-8.994"/><use href="#F" x="-26.988" y="4.5"/><use href="#F" x="-26.988" y="8.998"/><use href="#F" x="-26.988" y="13.498"/><use href="#G" x="-26.988"/><use href="#F" x="-22.49"/><use href="#F" x="-22.49" y="-4.498"/><use href="#F" x="-22.49" y="-8.994"/><use href="#F" x="-22.49" y="4.5"/><use href="#F" x="-22.49" y="8.998"/><use href="#F" x="-22.49" y="13.498"/><use href="#G" x="-22.49"/><use href="#F" x="-13.494"/><use href="#F" x="-13.494" y="-4.498"/><use href="#F" x="-13.494" y="-8.994"/><use href="#F" x="-13.494" y="4.5"/><use href="#F" x="-13.494" y="8.998"/><use href="#F" x="-13.494" y="13.498"/><use href="#G" x="-13.494"/><use href="#F" x="-8.995"/><use href="#F" x="-8.995" y="-4.498"/><use href="#F" x="-8.995" y="-8.994"/><use href="#F" x="-8.995" y="4.5"/><use href="#F" x="-8.995" y="8.998"/><use href="#F" x="-8.995" y="13.498"/><use href="#G" x="-8.995"/><use href="#F" x="-4.496"/><use href="#F" x="-4.496" y="-4.498"/><use href="#F" x="-4.496" y="-8.994"/><use href="#F" x="-4.496" y="4.5"/><use href="#F" x="-4.496" y="8.998"/><use href="#F" x="-4.496" y="13.498"/><use href="#G" x="-4.496"/><use href="#B" x="4.499" y="-35.986"/><use href="#B" x="17.995" y="-35.986"/><use href="#B" x="22.492" y="-35.986"/><use href="#B" x="17.995" y="-40.482"/><use href="#B" x="13.496" y="-44.98"/></g><g fill="#304700"><use href="#D" y="-31.488"/><use href="#I"/><use href="#I" y="4.496"/><use href="#I" y="8.994"/><use href="#I" y="13.494"/><use href="#I" y="17.992"/><use href="#I" y="22.492"/><use href="#I" y="26.99"/><use href="#D" y="4.494"/><use href="#D" y="8.994"/><use href="#I" y="31.484"/><use href="#C" y="4.498"/><use href="#D" y="13.492"/><use href="#B" x="-8.995"/><use href="#B" x="-4.496" y="4.5"/><use href="#B" x="-8.995" y="4.5"/><use href="#B" y="4.5"/><use href="#B" x="4.499" y="4.5"/><use href="#B" x="8.998" y="4.5"/><use href="#E" x="22.491" y="40.486"/><use href="#B" x="17.995" y="4.5"/><use href="#B" x="22.492" y="4.5"/><use href="#B" x="26.991" y="4.5"/><use href="#B" x="31.49"/><use href="#B" x="35.986" y="-4.498"/><use href="#D" y="-35.988"/><use href="#B" x="-8.995" y="-53.979"/></g><g fill="#eff8cb"><use href="#E" x="8.995" y="6.898"/><use href="#E" x="13.494" y="6.898"/><use href="#E" x="17.993" y="6.898"/><use href="#E" x="22.491" y="6.898"/><use href="#E" x="26.99" y="2.4"/><use href="#E" x="26.99" y="-2.1"/><use href="#E" x="26.99" y="11.398"/><use href="#E" x="26.99" y="15.896"/><use href="#E" x="35.986" y="6.898"/><use href="#E" x="31.487" y="11.398"/><use href="#E" x="31.487" y="6.898"/><use href="#E" x="26.99" y="6.898"/><use href="#E" x="31.487" y="2.4"/></g><defs ><path id="B" d="M23.163 54.209h4.498v4.498h-4.498z"/><path id="C" d="M9.669 49.711h4.498v4.498H9.669z"/><path id="D" d="M5.172 40.717H9.67v4.498H5.172z"/><path id="E" d="M14.168 18.223h4.498v4.498h-4.498v-4.498z"/><path id="F" d="M59.149 22.721v4.498h-4.498v-4.498z"/><path id="G" d="M59.149 9.229v4.498h-4.498V9.229z"/><path id="H" d="M14.168 40.717v4.498H9.67v-4.498z"/><path id="I" d="M.673 13.727h4.498v4.498H.673z"/></defs></svg>