<svg width="35" height="35" viewBox="0 0 35 35" fill="none" xmlns="http://www.w3.org/2000/svg">
<path fill-rule="evenodd" clip-rule="evenodd" d="M23.3216 4.54297H11.9883H9.15495V7.3763L6.32161 7.3763H3.48828V10.2096V21.543H6.32161L9.15495 21.543V24.3763H16.2383V27.2096H11.9883V30.043H16.2383H19.0716H23.3216V27.2096H19.0716V24.3763H26.1549L26.155 21.543H28.9883L31.8216 21.543L31.8216 7.3763H28.9883H26.1549V4.54297H23.3216ZM23.3216 21.543V10.2096V7.3763H11.9883L11.9883 10.2096L11.9883 21.543H23.3216ZM28.9883 10.2096L28.9883 18.7096H26.1549L26.1549 10.2096H28.9883ZM9.15495 18.7096H6.32161L6.32161 10.2096H9.15495L9.15495 18.7096Z" fill="#84975B"/>
</svg>
