<svg width="40" height="40" viewBox="0 0 40 40" fill="none" xmlns="http://www.w3.org/2000/svg">
<path fill-rule="evenodd" clip-rule="evenodd" d="M29.3334 11.6667C29.3334 14.6082 26.9416 17 24 17C21.0584 17 18.6667 14.6082 18.6667 11.6667C18.6667 8.72507 21.0584 6.33333 24 6.33333C26.9416 6.33333 29.3334 8.72507 29.3334 11.6667ZM16 19.6667C16 22.6082 13.6083 25 10.6667 25C7.72507 25 5.33333 22.6082 5.33333 19.6667C5.33333 16.7251 7.72507 14.3333 10.6667 14.3333C13.6083 14.3333 16 16.7251 16 19.6667ZM29.3333 27.6667C29.3333 24.7251 31.7251 22.3333 34.6667 22.3333C37.6082 22.3333 40 24.7251 40 27.6667C40 30.6082 37.6082 33 34.6667 33C31.7251 33 29.3333 30.6082 29.3333 27.6667ZM21.3333 22.3333H26.6667V28.3333H32.6667V33.6667H26.6667V39.6667H21.3333V33.6667H15.3333V28.3333H21.3333V22.3333ZM13.3333 27.6667L11.3333 29.6667L6 24.3333L11.3333 19L13.3333 21L10.3333 24L13.3333 27.6667Z" fill="#304700"/>
</svg> 